<svg xmlns="http://www.w3.org/2000/svg" xmlns:xlink="http://www.w3.org/1999/xlink" width="391" zoomAndPan="magnify" viewBox="0 0 293.25 293.249989" height="391" preserveAspectRatio="xMidYMid meet" version="1.0"><defs><g/><clipPath id="4e826b3526"><path d="M 170 55 L 217.324219 55 L 217.324219 128 L 170 128 Z M 170 55 " clip-rule="nonzero"/></clipPath><clipPath id="f4d5047d6a"><path d="M 107 6.945312 L 190 6.945312 L 190 143 L 107 143 Z M 107 6.945312 " clip-rule="nonzero"/></clipPath><clipPath id="8f868909ec"><path d="M 63.152344 114 L 145 114 L 145 188 L 63.152344 188 Z M 63.152344 114 " clip-rule="nonzero"/></clipPath><clipPath id="f930179e78"><path d="M 95 129 L 217.324219 129 L 217.324219 214.519531 L 95 214.519531 Z M 95 129 " clip-rule="nonzero"/></clipPath></defs><path fill="#1d4923" d="M 80.230469 72.542969 L 80.230469 126.171875 C 87.652344 123.839844 94.992188 122.671875 102.125 122.671875 C 110.925781 122.671875 119.390625 124.421875 127.398438 127.925781 L 127.398438 55.238281 L 107.503906 62.535156 Z M 80.230469 72.542969 " fill-opacity="1" fill-rule="nonzero"/><g clip-path="url(#4e826b3526)"><path fill="#1d4923" d="M 189.953125 62.535156 L 170.058594 55.238281 L 170.058594 127.925781 C 178.066406 124.421875 186.53125 122.671875 195.332031 122.671875 C 202.464844 122.671875 209.800781 123.839844 217.226562 126.171875 L 217.226562 72.542969 Z M 189.953125 62.535156 " fill-opacity="1" fill-rule="nonzero"/></g><g clip-path="url(#f4d5047d6a)"><path fill="#1d4923" d="M 189.953125 30.507812 L 189.953125 55.613281 L 163.636719 45.9375 L 163.636719 131.09375 C 157.132812 134.847656 152.128906 139.144531 148.75 142.5625 C 145.371094 139.144531 140.410156 134.804688 133.859375 131.09375 L 133.859375 45.976562 L 107.546875 55.652344 L 107.546875 30.507812 L 148.75 6.945312 Z M 189.953125 30.507812 " fill-opacity="1" fill-rule="nonzero"/></g><g clip-path="url(#8f868909ec)"><path fill="#7caf2c" d="M 144.703125 147.777344 C 141.160156 144.105469 135.363281 138.976562 127.398438 135.054688 C 115.96875 129.425781 100.164062 126.171875 80.230469 132.972656 C 80.230469 132.972656 83.984375 138.558594 90.90625 145.773438 C 96.996094 152.070312 106.835938 161.957031 121.808594 168.253906 C 106.753906 164.082031 95.367188 154.90625 85.820312 145.773438 C 83.816406 143.855469 81.941406 141.894531 80.230469 140.019531 C 68.21875 126.675781 63.171875 114.746094 63.171875 114.746094 C 65.882812 131.46875 80.230469 145.734375 80.230469 145.734375 C 80.230469 161.496094 85.359375 175.71875 94.324219 187.269531 C 105.292969 186.808594 116.597656 179.304688 125.980469 170.085938 C 125.980469 170.085938 126.019531 170.046875 126.019531 170.046875 C 126.019531 170.046875 126.0625 170.003906 126.0625 170.003906 C 126.769531 169.335938 127.4375 168.628906 128.105469 167.960938 C 134.902344 160.953125 140.660156 153.449219 144.703125 147.777344 Z M 144.703125 147.777344 " fill-opacity="1" fill-rule="nonzero"/></g><g clip-path="url(#f930179e78)"><path fill="#7caf2c" d="M 217.226562 132.929688 L 217.226562 145.734375 C 217.226562 183.558594 186.574219 214.25 148.707031 214.25 C 137.988281 214.25 127.855469 211.789062 118.804688 207.410156 C 145.164062 204.535156 170.101562 189.144531 188.324219 172.296875 C 167.683594 187.4375 139.492188 201.15625 109.714844 202.117188 C 103.917969 198.113281 99.664062 194.359375 95.367188 188.8125 C 107.210938 189.480469 119.054688 180.511719 129.855469 171.378906 C 137.449219 164.917969 144.078125 157.828125 148.664062 152.53125 C 148.664062 152.53125 156.003906 141.980469 170.019531 135.054688 C 181.484375 129.386719 197.332031 126.132812 217.226562 132.929688 Z M 217.226562 132.929688 " fill-opacity="1" fill-rule="nonzero"/></g><g fill="#1d4923" fill-opacity="1"><g transform="translate(35.010917, 260.926874)"><g><path d="M 17.40625 -16.453125 L 34.171875 -16.453125 C 34.140625 -13.960938 33.734375 -11.675781 32.953125 -9.59375 C 32.179688 -7.507812 31.082031 -5.703125 29.65625 -4.171875 C 28.226562 -2.648438 26.53125 -1.460938 24.5625 -0.609375 C 22.601562 0.242188 20.441406 0.671875 18.078125 0.671875 C 15.765625 0.671875 13.617188 0.269531 11.640625 -0.53125 C 9.660156 -1.34375 7.929688 -2.484375 6.453125 -3.953125 C 4.972656 -5.421875 3.828125 -7.160156 3.015625 -9.171875 C 2.203125 -11.179688 1.796875 -13.351562 1.796875 -15.6875 C 1.796875 -18.0625 2.191406 -20.242188 2.984375 -22.234375 C 3.785156 -24.234375 4.910156 -25.972656 6.359375 -27.453125 C 7.816406 -28.929688 9.535156 -30.082031 11.515625 -30.90625 C 13.492188 -31.738281 15.632812 -32.15625 17.9375 -32.15625 C 20.550781 -32.15625 22.96875 -31.644531 25.1875 -30.625 C 27.40625 -29.601562 29.257812 -28.191406 30.75 -26.390625 C 32.25 -24.597656 33.242188 -22.515625 33.734375 -20.140625 L 26.71875 -20.140625 C 26.050781 -21.847656 24.9375 -23.195312 23.375 -24.1875 C 21.820312 -25.175781 20.054688 -25.671875 18.078125 -25.671875 C 16.222656 -25.671875 14.585938 -25.242188 13.171875 -24.390625 C 11.765625 -23.535156 10.660156 -22.363281 9.859375 -20.875 C 9.066406 -19.394531 8.671875 -17.664062 8.671875 -15.6875 C 8.671875 -13.738281 9.0625 -12.019531 9.84375 -10.53125 C 10.625 -9.050781 11.71875 -7.890625 13.125 -7.046875 C 14.539062 -6.210938 16.191406 -5.796875 18.078125 -5.796875 C 20.117188 -5.796875 21.945312 -6.289062 23.5625 -7.28125 C 25.175781 -8.269531 26.269531 -9.578125 26.84375 -11.203125 L 17.40625 -11.203125 Z M 17.40625 -16.453125 "/></g></g></g><g fill="#1d4923" fill-opacity="1"><g transform="translate(70.843701, 260.926874)"><g><path d="M 18.53125 0.671875 C 16.125 0.671875 13.898438 0.257812 11.859375 -0.5625 C 9.828125 -1.382812 8.050781 -2.535156 6.53125 -4.015625 C 5.019531 -5.503906 3.84375 -7.242188 3 -9.234375 C 2.164062 -11.234375 1.75 -13.398438 1.75 -15.734375 C 1.75 -18.078125 2.164062 -20.242188 3 -22.234375 C 3.84375 -24.234375 5.019531 -25.972656 6.53125 -27.453125 C 8.050781 -28.929688 9.828125 -30.082031 11.859375 -30.90625 C 13.898438 -31.738281 16.125 -32.15625 18.53125 -32.15625 C 20.925781 -32.15625 23.140625 -31.738281 25.171875 -30.90625 C 27.210938 -30.082031 28.984375 -28.929688 30.484375 -27.453125 C 31.984375 -25.972656 33.148438 -24.234375 33.984375 -22.234375 C 34.828125 -20.242188 35.25 -18.078125 35.25 -15.734375 C 35.25 -13.398438 34.828125 -11.234375 33.984375 -9.234375 C 33.148438 -7.242188 31.984375 -5.503906 30.484375 -4.015625 C 28.984375 -2.535156 27.210938 -1.382812 25.171875 -0.5625 C 23.140625 0.257812 20.925781 0.671875 18.53125 0.671875 Z M 18.53125 -5.75 C 20.414062 -5.75 22.097656 -6.179688 23.578125 -7.046875 C 25.066406 -7.921875 26.238281 -9.109375 27.09375 -10.609375 C 27.945312 -12.109375 28.375 -13.816406 28.375 -15.734375 C 28.375 -17.628906 27.945312 -19.332031 27.09375 -20.84375 C 26.238281 -22.351562 25.066406 -23.539062 23.578125 -24.40625 C 22.097656 -25.28125 20.414062 -25.71875 18.53125 -25.71875 C 16.664062 -25.71875 14.984375 -25.28125 13.484375 -24.40625 C 11.992188 -23.539062 10.8125 -22.351562 9.9375 -20.84375 C 9.070312 -19.332031 8.640625 -17.628906 8.640625 -15.734375 C 8.640625 -13.847656 9.070312 -12.144531 9.9375 -10.625 C 10.8125 -9.113281 11.992188 -7.921875 13.484375 -7.046875 C 14.984375 -6.179688 16.664062 -5.75 18.53125 -5.75 Z M 18.53125 -5.75 "/></g></g></g><g fill="#1d4923" fill-opacity="1"><g transform="translate(107.845442, 260.926874)"><g><path d="M 17.40625 -16.453125 L 34.171875 -16.453125 C 34.140625 -13.960938 33.734375 -11.675781 32.953125 -9.59375 C 32.179688 -7.507812 31.082031 -5.703125 29.65625 -4.171875 C 28.226562 -2.648438 26.53125 -1.460938 24.5625 -0.609375 C 22.601562 0.242188 20.441406 0.671875 18.078125 0.671875 C 15.765625 0.671875 13.617188 0.269531 11.640625 -0.53125 C 9.660156 -1.34375 7.929688 -2.484375 6.453125 -3.953125 C 4.972656 -5.421875 3.828125 -7.160156 3.015625 -9.171875 C 2.203125 -11.179688 1.796875 -13.351562 1.796875 -15.6875 C 1.796875 -18.0625 2.191406 -20.242188 2.984375 -22.234375 C 3.785156 -24.234375 4.910156 -25.972656 6.359375 -27.453125 C 7.816406 -28.929688 9.535156 -30.082031 11.515625 -30.90625 C 13.492188 -31.738281 15.632812 -32.15625 17.9375 -32.15625 C 20.550781 -32.15625 22.96875 -31.644531 25.1875 -30.625 C 27.40625 -29.601562 29.257812 -28.191406 30.75 -26.390625 C 32.25 -24.597656 33.242188 -22.515625 33.734375 -20.140625 L 26.71875 -20.140625 C 26.050781 -21.847656 24.9375 -23.195312 23.375 -24.1875 C 21.820312 -25.175781 20.054688 -25.671875 18.078125 -25.671875 C 16.222656 -25.671875 14.585938 -25.242188 13.171875 -24.390625 C 11.765625 -23.535156 10.660156 -22.363281 9.859375 -20.875 C 9.066406 -19.394531 8.671875 -17.664062 8.671875 -15.6875 C 8.671875 -13.738281 9.0625 -12.019531 9.84375 -10.53125 C 10.625 -9.050781 11.71875 -7.890625 13.125 -7.046875 C 14.539062 -6.210938 16.191406 -5.796875 18.078125 -5.796875 C 20.117188 -5.796875 21.945312 -6.289062 23.5625 -7.28125 C 25.175781 -8.269531 26.269531 -9.578125 26.84375 -11.203125 L 17.40625 -11.203125 Z M 17.40625 -16.453125 "/></g></g></g><g fill="#1d4923" fill-opacity="1"><g transform="translate(143.678226, 260.926874)"><g><path d="M 20.90625 0 L 14.796875 -10.75 L 10.4375 -10.75 L 10.4375 0 L 3.59375 0 L 3.59375 -31.484375 L 16.328125 -31.484375 C 18.421875 -31.484375 20.289062 -31.03125 21.9375 -30.125 C 23.59375 -29.226562 24.898438 -28 25.859375 -26.4375 C 26.816406 -24.882812 27.296875 -23.085938 27.296875 -21.046875 C 27.296875 -19.003906 26.773438 -17.179688 25.734375 -15.578125 C 24.703125 -13.972656 23.316406 -12.753906 21.578125 -11.921875 L 28.5625 0 Z M 10.4375 -25.1875 L 10.4375 -17.046875 L 15.875 -17.046875 C 17.28125 -17.046875 18.390625 -17.425781 19.203125 -18.1875 C 20.015625 -18.957031 20.421875 -19.925781 20.421875 -21.09375 C 20.421875 -22.289062 20.015625 -23.269531 19.203125 -24.03125 C 18.390625 -24.800781 17.28125 -25.1875 15.875 -25.1875 Z M 10.4375 -25.1875 "/></g></g></g><g fill="#1d4923" fill-opacity="1"><g transform="translate(173.396508, 260.926874)"><g><path d="M 10.4375 -6.34375 L 22.984375 -6.34375 L 22.984375 0 L 3.59375 0 L 3.59375 -31.484375 L 22.484375 -31.484375 L 22.484375 -25.1875 L 10.4375 -25.1875 L 10.4375 -18.984375 L 21.3125 -18.984375 L 21.3125 -12.8125 L 10.4375 -12.8125 Z M 10.4375 -6.34375 "/></g></g></g><g fill="#1d4923" fill-opacity="1"><g transform="translate(198.528919, 260.926874)"><g><path d="M 10.4375 -6.34375 L 22.984375 -6.34375 L 22.984375 0 L 3.59375 0 L 3.59375 -31.484375 L 22.484375 -31.484375 L 22.484375 -25.1875 L 10.4375 -25.1875 L 10.4375 -18.984375 L 21.3125 -18.984375 L 21.3125 -12.8125 L 10.4375 -12.8125 Z M 10.4375 -6.34375 "/></g></g></g><g fill="#1d4923" fill-opacity="1"><g transform="translate(223.661331, 260.926874)"><g><path d="M 23.5625 -31.484375 L 30.21875 -31.484375 L 30.21875 0 L 24.546875 0 L 10.296875 -19.65625 L 10.296875 0 L 3.59375 0 L 3.59375 -31.484375 L 9.765625 -31.484375 L 23.5625 -12.28125 Z M 23.5625 -31.484375 "/></g></g></g><g fill="#1d4923" fill-opacity="1"><g transform="translate(60.22978, 281.164906)"><g><path d="M 3.421875 0.15625 C 2.835938 0.15625 2.320312 0.0507812 1.875 -0.15625 C 1.425781 -0.375 1.078125 -0.679688 0.828125 -1.078125 C 0.578125 -1.472656 0.453125 -1.945312 0.453125 -2.5 L 2.125 -2.5 C 2.125 -2.125 2.253906 -1.84375 2.515625 -1.65625 C 2.773438 -1.476562 3.078125 -1.390625 3.421875 -1.390625 C 3.628906 -1.390625 3.828125 -1.425781 4.015625 -1.5 C 4.203125 -1.570312 4.351562 -1.675781 4.46875 -1.8125 C 4.59375 -1.945312 4.65625 -2.109375 4.65625 -2.296875 C 4.65625 -2.492188 4.582031 -2.648438 4.4375 -2.765625 C 4.300781 -2.878906 4.113281 -2.972656 3.875 -3.046875 C 3.644531 -3.117188 3.394531 -3.1875 3.125 -3.25 C 2.832031 -3.3125 2.535156 -3.390625 2.234375 -3.484375 C 1.941406 -3.585938 1.664062 -3.71875 1.40625 -3.875 C 1.144531 -4.03125 0.9375 -4.238281 0.78125 -4.5 C 0.632812 -4.769531 0.5625 -5.113281 0.5625 -5.53125 C 0.5625 -6.269531 0.8125 -6.835938 1.3125 -7.234375 C 1.8125 -7.628906 2.488281 -7.828125 3.34375 -7.828125 C 4.226562 -7.828125 4.910156 -7.601562 5.390625 -7.15625 C 5.878906 -6.71875 6.125 -6.117188 6.125 -5.359375 L 4.46875 -5.359375 C 4.46875 -5.691406 4.347656 -5.9375 4.109375 -6.09375 C 3.878906 -6.25 3.613281 -6.328125 3.3125 -6.328125 C 3.039062 -6.328125 2.789062 -6.265625 2.5625 -6.140625 C 2.332031 -6.023438 2.21875 -5.847656 2.21875 -5.609375 C 2.21875 -5.421875 2.285156 -5.273438 2.421875 -5.171875 C 2.554688 -5.066406 2.734375 -4.976562 2.953125 -4.90625 C 3.179688 -4.832031 3.429688 -4.765625 3.703125 -4.703125 C 3.992188 -4.628906 4.289062 -4.539062 4.59375 -4.4375 C 4.90625 -4.34375 5.191406 -4.210938 5.453125 -4.046875 C 5.722656 -3.878906 5.9375 -3.65625 6.09375 -3.375 C 6.257812 -3.09375 6.34375 -2.738281 6.34375 -2.3125 C 6.34375 -1.757812 6.207031 -1.300781 5.9375 -0.9375 C 5.675781 -0.570312 5.328125 -0.296875 4.890625 -0.109375 C 4.453125 0.0664062 3.960938 0.15625 3.421875 0.15625 Z M 3.421875 0.15625 "/></g></g></g><g fill="#1d4923" fill-opacity="1"><g transform="translate(68.587759, 281.164906)"><g><path d="M 5.984375 0 L 5.453125 -1.453125 L 2.390625 -1.453125 L 1.859375 0 L 0.09375 0 L 3.109375 -7.6875 L 4.671875 -7.6875 L 7.78125 0 Z M 3.90625 -5.65625 L 2.90625 -2.90625 L 4.921875 -2.90625 Z M 3.90625 -5.65625 "/></g></g></g><g fill="#1d4923" fill-opacity="1"><g transform="translate(78.03304, 281.164906)"><g><path d="M 5.75 -7.6875 L 7.5625 -7.6875 L 4.671875 0 L 3.09375 0 L 0.09375 -7.6875 L 1.921875 -7.6875 L 3.859375 -2.25 Z M 5.75 -7.6875 "/></g></g></g><g fill="#1d4923" fill-opacity="1"><g transform="translate(87.302594, 281.164906)"><g><path d="M 2.546875 -1.546875 L 5.609375 -1.546875 L 5.609375 0 L 0.875 0 L 0.875 -7.6875 L 5.5 -7.6875 L 5.5 -6.15625 L 2.546875 -6.15625 L 2.546875 -4.640625 L 5.203125 -4.640625 L 5.203125 -3.125 L 2.546875 -3.125 Z M 2.546875 -1.546875 "/></g></g></g><g fill="#1d4923" fill-opacity="1"><g transform="translate(99.186081, 281.164906)"><g><path d="M 6.1875 -7.6875 L 6.1875 -6.140625 L 4.046875 -6.140625 L 4.046875 0 L 2.375 0 L 2.375 -6.140625 L 0.234375 -6.140625 L 0.234375 -7.6875 Z M 6.1875 -7.6875 "/></g></g></g><g fill="#1d4923" fill-opacity="1"><g transform="translate(107.15966, 281.164906)"><g><path d="M 5.4375 -7.6875 L 7.09375 -7.6875 L 7.09375 0 L 5.4375 0 L 5.4375 -3.171875 L 2.546875 -3.171875 L 2.546875 0 L 0.875 0 L 0.875 -7.6875 L 2.546875 -7.6875 L 2.546875 -4.71875 L 5.4375 -4.71875 Z M 5.4375 -7.6875 "/></g></g></g><g fill="#1d4923" fill-opacity="1"><g transform="translate(116.70379, 281.164906)"><g><path d="M 2.546875 -1.546875 L 5.609375 -1.546875 L 5.609375 0 L 0.875 0 L 0.875 -7.6875 L 5.5 -7.6875 L 5.5 -6.15625 L 2.546875 -6.15625 L 2.546875 -4.640625 L 5.203125 -4.640625 L 5.203125 -3.125 L 2.546875 -3.125 Z M 2.546875 -1.546875 "/></g></g></g><g fill="#1d4923" fill-opacity="1"><g transform="translate(124.402799, 281.164906)"><g/></g></g><g fill="#1d4923" fill-opacity="1"><g transform="translate(128.587281, 281.164906)"><g><path d="M 2.546875 -1.546875 L 5.609375 -1.546875 L 5.609375 0 L 0.875 0 L 0.875 -7.6875 L 5.5 -7.6875 L 5.5 -6.15625 L 2.546875 -6.15625 L 2.546875 -4.640625 L 5.203125 -4.640625 L 5.203125 -3.125 L 2.546875 -3.125 Z M 2.546875 -1.546875 "/></g></g></g><g fill="#1d4923" fill-opacity="1"><g transform="translate(136.286291, 281.164906)"><g><path d="M 5.984375 0 L 5.453125 -1.453125 L 2.390625 -1.453125 L 1.859375 0 L 0.09375 0 L 3.109375 -7.6875 L 4.671875 -7.6875 L 7.78125 0 Z M 3.90625 -5.65625 L 2.90625 -2.90625 L 4.921875 -2.90625 Z M 3.90625 -5.65625 "/></g></g></g><g fill="#1d4923" fill-opacity="1"><g transform="translate(145.731574, 281.164906)"><g><path d="M 5.109375 0 L 3.609375 -2.625 L 2.546875 -2.625 L 2.546875 0 L 0.875 0 L 0.875 -7.6875 L 3.984375 -7.6875 C 4.492188 -7.6875 4.953125 -7.578125 5.359375 -7.359375 C 5.765625 -7.140625 6.082031 -6.835938 6.3125 -6.453125 C 6.550781 -6.078125 6.671875 -5.640625 6.671875 -5.140625 C 6.671875 -4.640625 6.539062 -4.191406 6.28125 -3.796875 C 6.03125 -3.410156 5.691406 -3.113281 5.265625 -2.90625 L 6.96875 0 Z M 2.546875 -6.15625 L 2.546875 -4.15625 L 3.875 -4.15625 C 4.21875 -4.15625 4.488281 -4.25 4.6875 -4.4375 C 4.882812 -4.625 4.984375 -4.863281 4.984375 -5.15625 C 4.984375 -5.445312 4.882812 -5.6875 4.6875 -5.875 C 4.488281 -6.0625 4.21875 -6.15625 3.875 -6.15625 Z M 2.546875 -6.15625 "/></g></g></g><g fill="#1d4923" fill-opacity="1"><g transform="translate(154.55083, 281.164906)"><g><path d="M 6.1875 -7.6875 L 6.1875 -6.140625 L 4.046875 -6.140625 L 4.046875 0 L 2.375 0 L 2.375 -6.140625 L 0.234375 -6.140625 L 0.234375 -7.6875 Z M 6.1875 -7.6875 "/></g></g></g><g fill="#1d4923" fill-opacity="1"><g transform="translate(162.524413, 281.164906)"><g><path d="M 5.4375 -7.6875 L 7.09375 -7.6875 L 7.09375 0 L 5.4375 0 L 5.4375 -3.171875 L 2.546875 -3.171875 L 2.546875 0 L 0.875 0 L 0.875 -7.6875 L 2.546875 -7.6875 L 2.546875 -4.71875 L 5.4375 -4.71875 Z M 5.4375 -7.6875 "/></g></g></g><g fill="#1d4923" fill-opacity="1"><g transform="translate(172.068543, 281.164906)"><g/></g></g><g fill="#1d4923" fill-opacity="1"><g transform="translate(176.253025, 281.164906)"><g><path d="M 9.53125 -7.6875 L 11.265625 -7.6875 L 8.90625 0 L 7.421875 0 L 5.703125 -4.3125 L 4.046875 0 L 2.5625 0 L 0.125 -7.6875 L 1.90625 -7.6875 L 3.40625 -2.578125 L 5.421875 -7.609375 L 5.984375 -7.609375 L 8.0625 -2.578125 Z M 9.53125 -7.6875 "/></g></g></g><g fill="#1d4923" fill-opacity="1"><g transform="translate(189.24578, 281.164906)"><g><path d="M 0.875 0 L 0.875 -7.6875 L 2.546875 -7.6875 L 2.546875 0 Z M 0.875 0 "/></g></g></g><g fill="#1d4923" fill-opacity="1"><g transform="translate(194.232007, 281.164906)"><g><path d="M 6.1875 -7.6875 L 6.1875 -6.140625 L 4.046875 -6.140625 L 4.046875 0 L 2.375 0 L 2.375 -6.140625 L 0.234375 -6.140625 L 0.234375 -7.6875 Z M 6.1875 -7.6875 "/></g></g></g><g fill="#1d4923" fill-opacity="1"><g transform="translate(202.205583, 281.164906)"><g><path d="M 5.4375 -7.6875 L 7.09375 -7.6875 L 7.09375 0 L 5.4375 0 L 5.4375 -3.171875 L 2.546875 -3.171875 L 2.546875 0 L 0.875 0 L 0.875 -7.6875 L 2.546875 -7.6875 L 2.546875 -4.71875 L 5.4375 -4.71875 Z M 5.4375 -7.6875 "/></g></g></g><g fill="#1d4923" fill-opacity="1"><g transform="translate(211.749706, 281.164906)"><g/></g></g><g fill="#1d4923" fill-opacity="1"><g transform="translate(215.934181, 281.164906)"><g><path d="M 3.96875 0.171875 C 3.363281 0.171875 2.820312 0.0390625 2.34375 -0.21875 C 1.875 -0.476562 1.5 -0.835938 1.21875 -1.296875 C 0.9375 -1.753906 0.796875 -2.285156 0.796875 -2.890625 L 0.796875 -7.6875 L 2.46875 -7.6875 L 2.46875 -2.96875 C 2.46875 -2.488281 2.609375 -2.109375 2.890625 -1.828125 C 3.171875 -1.546875 3.53125 -1.40625 3.96875 -1.40625 C 4.414062 -1.40625 4.78125 -1.546875 5.0625 -1.828125 C 5.351562 -2.109375 5.5 -2.488281 5.5 -2.96875 L 5.5 -7.6875 L 7.15625 -7.6875 L 7.15625 -2.890625 C 7.15625 -2.285156 7.015625 -1.753906 6.734375 -1.296875 C 6.460938 -0.835938 6.085938 -0.476562 5.609375 -0.21875 C 5.128906 0.0390625 4.582031 0.171875 3.96875 0.171875 Z M 3.96875 0.171875 "/></g></g></g><g fill="#1d4923" fill-opacity="1"><g transform="translate(225.445359, 281.164906)"><g><path d="M 3.421875 0.15625 C 2.835938 0.15625 2.320312 0.0507812 1.875 -0.15625 C 1.425781 -0.375 1.078125 -0.679688 0.828125 -1.078125 C 0.578125 -1.472656 0.453125 -1.945312 0.453125 -2.5 L 2.125 -2.5 C 2.125 -2.125 2.253906 -1.84375 2.515625 -1.65625 C 2.773438 -1.476562 3.078125 -1.390625 3.421875 -1.390625 C 3.628906 -1.390625 3.828125 -1.425781 4.015625 -1.5 C 4.203125 -1.570312 4.351562 -1.675781 4.46875 -1.8125 C 4.59375 -1.945312 4.65625 -2.109375 4.65625 -2.296875 C 4.65625 -2.492188 4.582031 -2.648438 4.4375 -2.765625 C 4.300781 -2.878906 4.113281 -2.972656 3.875 -3.046875 C 3.644531 -3.117188 3.394531 -3.1875 3.125 -3.25 C 2.832031 -3.3125 2.535156 -3.390625 2.234375 -3.484375 C 1.941406 -3.585938 1.664062 -3.71875 1.40625 -3.875 C 1.144531 -4.03125 0.9375 -4.238281 0.78125 -4.5 C 0.632812 -4.769531 0.5625 -5.113281 0.5625 -5.53125 C 0.5625 -6.269531 0.8125 -6.835938 1.3125 -7.234375 C 1.8125 -7.628906 2.488281 -7.828125 3.34375 -7.828125 C 4.226562 -7.828125 4.910156 -7.601562 5.390625 -7.15625 C 5.878906 -6.71875 6.125 -6.117188 6.125 -5.359375 L 4.46875 -5.359375 C 4.46875 -5.691406 4.347656 -5.9375 4.109375 -6.09375 C 3.878906 -6.25 3.613281 -6.328125 3.3125 -6.328125 C 3.039062 -6.328125 2.789062 -6.265625 2.5625 -6.140625 C 2.332031 -6.023438 2.21875 -5.847656 2.21875 -5.609375 C 2.21875 -5.421875 2.285156 -5.273438 2.421875 -5.171875 C 2.554688 -5.066406 2.734375 -4.976562 2.953125 -4.90625 C 3.179688 -4.832031 3.429688 -4.765625 3.703125 -4.703125 C 3.992188 -4.628906 4.289062 -4.539062 4.59375 -4.4375 C 4.90625 -4.34375 5.191406 -4.210938 5.453125 -4.046875 C 5.722656 -3.878906 5.9375 -3.65625 6.09375 -3.375 C 6.257812 -3.09375 6.34375 -2.738281 6.34375 -2.3125 C 6.34375 -1.757812 6.207031 -1.300781 5.9375 -0.9375 C 5.675781 -0.570312 5.328125 -0.296875 4.890625 -0.109375 C 4.453125 0.0664062 3.960938 0.15625 3.421875 0.15625 Z M 3.421875 0.15625 "/></g></g></g></svg>